<svg xmlns="http://www.w3.org/2000/svg" xmlns:xlink="http://www.w3.org/1999/xlink" viewBox="0 0 882.31 242.67"><defs><style>.cls-1{fill:url(#linear-gradient);}.cls-2{fill:#fff;}</style><linearGradient id="linear-gradient" x1="24761.08" y1="-642.55" x2="25003.69" y2="-642.55" gradientTransform="matrix(-0.88, -0.48, -0.48, 0.88, 21656.1, 12601.25)" gradientUnits="userSpaceOnUse"><stop offset="0.04" stop-color="#a0262a"/><stop offset="0.37" stop-color="#cb1831"/><stop offset="0.74" stop-color="#ff073a"/></linearGradient></defs><g id="Layer_2" data-name="Layer 2"><g id="Layer_1-2" data-name="Layer 1"><g id="Layer_2-2" data-name="Layer 2"><g id="Layer_1-2-2" data-name="Layer 1-2"><path class="cls-1" d="M15,63a121.31,121.31,0,1,1,48,164.7h0A121.29,121.29,0,0,1,15,63Z"/><path class="cls-2" d="M144.31,143l-.05.12.06-.15h0Z"/><path class="cls-2" d="M163.82,151.25c-.71-3-2.7-7.69-7.1-9.57-5.25-2.25-9.11-1.12-11.57.67h-.08c-4.42,9.63-13.4,15.92-23.76,15.93S102,152,97.56,142.33h-.07c-2.47-1.79-6.33-2.92-11.58-.67-4.4,1.88-6.39,6.6-7.1,9.57h0l.06.1a33.6,33.6,0,0,0,4,7.66,46.28,46.28,0,0,0,76.82,0,34.84,34.84,0,0,0,4.1-7.69h0Z"/><path class="cls-2" d="M212.13,132h0v-.05L130.54,69.43a14,14,0,0,0-2.34-1.79,13.27,13.27,0,0,0-13.7,0,13.56,13.56,0,0,0-2.49,1.9L72.87,99.45v-22h0a12.89,12.89,0,0,0-18-3.13,12.58,12.58,0,0,0-3.13,3.13h0v38.22L30.5,131.87h0A12.88,12.88,0,0,0,39,148a13.11,13.11,0,0,0,4.36.56h0l74.23-56.79L121.33,89,125,91.84l74.2,56.8h0A12.88,12.88,0,0,0,212.13,132Z"/><path class="cls-2" d="M407.48,97.3a38.47,38.47,0,0,1,15.43,3.13,40.07,40.07,0,0,1,21,21,38.87,38.87,0,0,1,0,30.55,39.93,39.93,0,0,1-21,21,39.56,39.56,0,0,1-51.86-21,38.78,38.78,0,0,1,0-30.55,39.93,39.93,0,0,1,21-21A38.4,38.4,0,0,1,407.48,97.3Zm0,60.64a15.4,15.4,0,0,0,7.1-1.68,18.86,18.86,0,0,0,5.81-4.66,23.14,23.14,0,0,0,4-6.88,24.42,24.42,0,0,0,1.45-8.47,23.72,23.72,0,0,0-1.45-8.17,21.22,21.22,0,0,0-4-6.72,19.91,19.91,0,0,0-5.81-4.5,15.28,15.28,0,0,0-7.1-1.69,15.8,15.8,0,0,0-7.18,1.69,19.45,19.45,0,0,0-5.88,4.5,20.68,20.68,0,0,0-4,6.72,23,23,0,0,0-1.45,8.17,24,24,0,0,0,1.45,8.47,22.51,22.51,0,0,0,4,6.88,18.37,18.37,0,0,0,5.88,4.66,15.71,15.71,0,0,0,7.18,1.73Z"/><rect class="cls-2" x="504.8" y="97.96" width="20.92" height="76.86"/><path class="cls-2" d="M572,129.53c3.35,1.12,6.44,2.27,9.23,3.44a32,32,0,0,1,7.33,4.2,16.75,16.75,0,0,1,6.65,14.05v.15q0,11.61-7.71,18.18t-21.62,6.57a50.59,50.59,0,0,1-17.1-3,58.66,58.66,0,0,1-15.74-8.56l-.15-.15.15-.16,10.39-16.39.15.15A31,31,0,0,0,554,155.42a30.58,30.58,0,0,0,12.4,2.57q9,0,9-5.79a4.39,4.39,0,0,0-2.9-4.11,51.24,51.24,0,0,0-6.87-2.59,6.18,6.18,0,0,0-1.46-.39,4.71,4.71,0,0,1-1.44-.38c-3.06-.81-6.11-1.7-9.17-2.66a31.19,31.19,0,0,1-8.25-4,20.61,20.61,0,0,1-6-6.4,18.87,18.87,0,0,1-2.37-10v-.31a23.4,23.4,0,0,1,2-9.75,21.74,21.74,0,0,1,5.65-7.61,25.68,25.68,0,0,1,8.86-5,35.58,35.58,0,0,1,11.45-1.76,52.06,52.06,0,0,1,14.82,2.22A51.11,51.11,0,0,1,593.6,106v.3l-9.32,17-.15-.16a25.59,25.59,0,0,0-8.71-5.57,29.62,29.62,0,0,0-11-2.06c-.82,0-1.63.06-2.44.15a7.1,7.1,0,0,0-2.52.77,5.8,5.8,0,0,0-1.91,1.6,4.48,4.48,0,0,0-.76,2.82,3.36,3.36,0,0,0,1.22,2.52,14,14,0,0,0,3.13,2.14,38.86,38.86,0,0,0,4.27,1.91c1.59.61,3.14,1.17,4.67,1.68a4.32,4.32,0,0,1,1,.15Z"/><path class="cls-2" d="M643,97.3a38.1,38.1,0,0,1,15.28,3.13,40.07,40.07,0,0,1,21,21,38.26,38.26,0,0,1,3.13,15.43,39.61,39.61,0,0,1-.91,8.55l-.16.31h-44l-5.78-15.58h30.2a22.81,22.81,0,0,0-7.1-10.54A17.85,17.85,0,0,0,643,115.48a18.65,18.65,0,0,0-7.79,1.67,20,20,0,0,0-10.54,11.19,22.85,22.85,0,0,0-1.52,8.45,20.58,20.58,0,0,0,1.38,7.23,21.71,21.71,0,0,0,4,6.76,22.92,22.92,0,0,0,6.27,5.11,16.53,16.53,0,0,0,8.24,2,23.71,23.71,0,0,0,7.56-1.14,14.17,14.17,0,0,0,6.5-5.12l.15-.16.31.16,15.25,10.5-.31.31c-3.66,5.13-5.86,6.44-11.51,9.32a39.12,39.12,0,0,1-18,4.36,39.64,39.64,0,0,1-15.5-3.06,38.65,38.65,0,0,1-12.6-8.4,40.1,40.1,0,0,1-8.47-12.52,37.7,37.7,0,0,1-3.14-15.28,38.11,38.11,0,0,1,3.14-15.43,39.75,39.75,0,0,1,21.07-21A38.9,38.9,0,0,1,643,97.3Z"/><path class="cls-2" d="M691,98h20.31v83.1a27.9,27.9,0,0,1-2.23,11.15,28.6,28.6,0,0,1-15.31,15.19,27.73,27.73,0,0,1-11,2.22H668.92v-.15l-7.49-19.71h21.31a7.74,7.74,0,0,0,5.88-2.52,8.59,8.59,0,0,0,2.37-6.05Z"/><path class="cls-2" d="M712.42,76.13a11.29,11.29,0,1,1-11.29-11.29h0A11.3,11.3,0,0,1,712.42,76.13Z"/><path class="cls-2" d="M760,97.3a38.47,38.47,0,0,1,15.43,3.13,40.07,40.07,0,0,1,21,21,38.87,38.87,0,0,1,0,30.55,39.93,39.93,0,0,1-21,21,39.45,39.45,0,0,1-30.86,0,39.93,39.93,0,0,1-21-21,38.78,38.78,0,0,1,0-30.55,40,40,0,0,1,21-21A38.4,38.4,0,0,1,760,97.3ZM760,158a15.4,15.4,0,0,0,7.1-1.68,18.86,18.86,0,0,0,5.81-4.66,23.14,23.14,0,0,0,4-6.88,24.42,24.42,0,0,0,1.45-8.47,23.72,23.72,0,0,0-1.45-8.17,21.22,21.22,0,0,0-4-6.72,19.91,19.91,0,0,0-5.81-4.5,15.28,15.28,0,0,0-7.1-1.69,15.8,15.8,0,0,0-7.18,1.69,19.45,19.45,0,0,0-5.88,4.5,20.86,20.86,0,0,0-4,6.72,23,23,0,0,0-1.45,8.17,24,24,0,0,0,1.45,8.47,22.72,22.72,0,0,0,4,6.88,18.37,18.37,0,0,0,5.88,4.66A15.66,15.66,0,0,0,760,158Z"/><polygon class="cls-2" points="827.95 170.11 796.81 97.98 818.65 97.98 837.5 146.32 827.95 170.11"/><path class="cls-2" d="M882.31,98s-19.77,53.81-23.79,64-8.32,18.56-12.91,25q-6.87,9.93-15.5,14.36t-21.61,4.43h-.31V185h.31c2.64,0,5-.11,7.1-.31a21.75,21.75,0,0,0,5.73-1.3,18.12,18.12,0,0,0,4.81-2.75,21.38,21.38,0,0,0,4.2-4.65,51.09,51.09,0,0,0,4-6.72q2-4,4.13-9.48T843.2,147q2.58-7.23,5.8-16.42L854.19,116c1.84-5.2,6.3-18,6.3-18Z"/><path class="cls-2" d="M499.79,155.44a25.77,25.77,0,0,1-7.79,1.71c-3.77,0-6.67-.58-8.7-1.76a11,11,0,0,1-4.51-4.66,16.87,16.87,0,0,1-1.68-6.72c-.16-2.55-.23-5.2-.23-7.94V98H456V136.1q0,19.69,7.18,28.71,7.77,10.08,26.42,10.08a29.73,29.73,0,0,0,15.62-4V152.77S501.37,154.81,499.79,155.44Z"/><path class="cls-2" d="M351.6,107.69q-7.59-9.93-26-9.93a31.11,31.11,0,0,0-10.69,1.77,25.94,25.94,0,0,0-4.75,2.28v17.72l.19-.09c3.45-1.63,9.85-3.5,12.8-3.5,3.77,0,6.67.55,8.71,1.67a10.15,10.15,0,0,1,4.43,4.57,18.34,18.34,0,0,1,1.61,6.71q.23,3.8.23,7.92V174.9h20.31V136.71Q358.41,116.88,351.6,107.69Z"/><rect class="cls-2" x="283.75" y="67.98" width="20.43" height="106.92"/></g></g></g></g></svg>